# xmcd
#
# Track frame offsets:
#	150
#	17846
#	32578
#	48783
#	66975
#	82714
#	99657
#	112388
#	130014
#	147099
#
# Disc length: 2203 seconds
# Revision: 1
# Processed by: cddbd v1.5.2PL0 Copyright (c) Steve Scherf et al.
# Submitted via: dBpowerAMP V12.0
#
DISCID=7f08990a
DTITLE=Doc Walker - 16 and 1
DYEAR=2011
DGENRE=Country
TTITLE0=Are You With Me Tonight ?
TTITLE1=Baby, Do It Again
TTITLE2=Never Letting Go
TTITLE3=Where I Belong
TTITLE4=Country Girl
TTITLE5=Hard Act To Follow
TTITLE6=Get Out Of Denver
TTITLE7=Do It Right
TTITLE8=Disappear Now
TTITLE9=Taiilgate Revolution
EXTD=
EXTT0=
EXTT1=
EXTT2=
EXTT3=
EXTT4=
EXTT5=
EXTT6=
EXTT7=
EXTT8=
EXTT9=
PLAYORDER=
